<svg version="1.2" xmlns="http://www.w3.org/2000/svg" viewBox="0 0 18 18" fill="currentColor"><path d="m9 2.7q-0.3 0-0.7 0.1l-7.9 2.9c-0.2 0.1-0.4 0.3-0.4 0.6 0 0.3 0.2 0.5 0.4 0.6l1.7 0.6c-0.5 0.7-0.7 1.6-0.7 2.5v0.8c0 0.8-0.4 1.6-0.7 2.3q-0.2 0.5-0.6 1-0.1 0.2-0.1 0.5 0.1 0.2 0.3 0.2l1.8 0.5q0.2 0 0.4-0.1 0.2-0.1 0.2-0.3c0.2-1.2 0.1-2.2-0.1-3q-0.1-0.6-0.3-1.2v-0.7c0-0.8 0.2-1.6 0.7-2.3q0.6-0.7 1.4-1l4.4-1.7c0.3-0.1 0.5 0 0.6 0.2 0.1 0.3 0 0.5-0.2 0.6l-4.5 1.7q-0.5 0.3-0.9 0.7l4.5 1.6q0.4 0.1 0.7 0.1 0.3 0 0.7-0.1l7.9-2.9c0.2-0.1 0.4-0.3 0.4-0.6 0-0.3-0.2-0.5-0.4-0.6l-7.9-2.9q-0.4-0.1-0.7-0.1zm-5.4 10.6c0 1 2.4 2 5.4 2 3 0 5.4-1 5.4-2l-0.4-4.1-4 1.4q-0.5 0.2-1 0.2-0.5 0-1-0.2l-4-1.4z"/></svg>
