<svg version="1.2" xmlns="http://www.w3.org/2000/svg" viewBox="0 0 18 18" fill="currentColor"><path d="m8.6 0.1l-7.9 3.4c-0.5 0.2-0.8 0.7-0.7 1.2 0.1 0.5 0.6 0.9 1.1 0.9v0.3c0 0.5 0.4 0.8 0.9 0.8h14c0.5 0 0.9-0.3 0.9-0.8v-0.3c0.5 0 1-0.4 1.1-0.9 0.1-0.5-0.2-1-0.7-1.2l-7.9-3.4c-0.2-0.1-0.6-0.1-0.8 0zm-4.1 7.8h-2.2v6.9q-0.1 0-0.1 0l-1.7 1.1c-0.4 0.3-0.6 0.8-0.5 1.3 0.2 0.5 0.6 0.8 1.1 0.8h15.8c0.5 0 0.9-0.3 1.1-0.8 0.1-0.5-0.1-1-0.5-1.3l-1.7-1.1q0 0-0.1 0l0.1-6.9h-2.3v6.7h-1.4v-6.7h-2.3v6.7h-1.6v-6.7h-2.3v6.7h-1.4zm4.5-5.6c0.3 0 0.6 0.1 0.8 0.3 0.2 0.2 0.3 0.5 0.3 0.8 0 0.3-0.1 0.6-0.3 0.8-0.2 0.2-0.5 0.3-0.8 0.3-0.3 0-0.6-0.1-0.8-0.3-0.2-0.2-0.3-0.5-0.3-0.8 0-0.3 0.1-0.6 0.3-0.8 0.2-0.2 0.5-0.3 0.8-0.3z"/></svg>
