<svg version="1.2" xmlns="http://www.w3.org/2000/svg" viewBox="0 0 18 18" fill="currentColor"><path d="m17.9 5.3c0-1.5-0.4-2.7-1.4-3.8-1.1-1-2.3-1.4-3.8-1.4-1.5-0.1-5.9-0.1-7.4 0-1.5 0-2.7 0.4-3.8 1.4-1 1.1-1.4 2.3-1.4 3.8-0.1 1.5-0.1 5.9 0 7.4 0 1.5 0.4 2.7 1.4 3.8 1.1 1 2.3 1.4 3.8 1.4 1.5 0.1 5.9 0.1 7.4 0 1.5 0 2.7-0.4 3.8-1.4 1-1.1 1.4-2.3 1.4-3.8 0.1-1.5 0.1-5.9 0-7.4zm-1.9 9c-0.3 0.8-0.9 1.4-1.7 1.7-1.2 0.5-4 0.4-5.3 0.4-1.3 0-4.1 0.1-5.3-0.4-0.8-0.3-1.4-0.9-1.7-1.7-0.5-1.2-0.4-4-0.4-5.3 0-1.3-0.1-4.1 0.4-5.3 0.3-0.8 0.9-1.4 1.7-1.7 1.2-0.5 4-0.4 5.3-0.4 1.3 0 4.1-0.1 5.3 0.4 0.8 0.3 1.4 0.9 1.7 1.7 0.5 1.2 0.4 4 0.4 5.3 0 1.3 0.1 4.1-0.4 5.3zm-1.1-10.1c0 0.6-0.5 1.1-1.1 1.1-0.6 0-1.1-0.5-1.1-1.1 0-0.6 0.5-1.1 1.1-1.1 0.6 0 1.1 0.5 1.1 1.1zm-5.9 0.2c-2.6 0-4.6 2-4.6 4.6 0 2.6 2 4.6 4.6 4.6 2.6 0 4.6-2 4.6-4.6 0-2.6-2-4.6-4.6-4.6zm0 7.6c-1.6 0-3-1.3-3-3 0-1.7 1.3-3 3-3 1.7 0 3 1.3 3 3 0 1.7-1.3 3-3 3z"/></svg>
