<svg version="1.2" xmlns="http://www.w3.org/2000/svg" viewBox="0 0 18 18" fill="currentColor"><path d="m2.3 16.3h1.6v1.7h-1.6c-1.3 0-2.3-1-2.3-2.3v-13.5c0-1.2 1-2.2 2.3-2.2h5.8c0.6 0 1.1 0.2 1.6 0.7l3.1 3.1c0.5 0.5 0.7 1 0.7 1.6v5.3h-1.7v-5.1h-2.8c-0.6 0-1.1-0.5-1.1-1.1v-2.8h-5.7c-0.3 0-0.5 0.2-0.5 0.5v13.5c0 0.4 0.2 0.6 0.6 0.6zm3.9-3.9h1.1c1.1 0 2 0.9 2 1.9 0 1.1-0.9 2-2 2h-0.5v1.1c0 0.3-0.3 0.6-0.6 0.6-0.3 0-0.6-0.3-0.6-0.6v-1.7-2.8c0-0.3 0.3-0.5 0.6-0.5zm1.1 2.8c0.5 0 0.9-0.4 0.9-0.9 0-0.4-0.4-0.8-0.9-0.8h-0.5v1.7zm3.3-2.8h1.2c0.9 0 1.6 0.7 1.6 1.7v2.2c0 0.9-0.7 1.7-1.6 1.7h-1.2c-0.3 0-0.5-0.3-0.5-0.6v-4.5c0-0.3 0.2-0.5 0.5-0.5zm1.2 4.5c0.3 0 0.5-0.3 0.5-0.6v-2.2c0-0.3-0.2-0.6-0.5-0.6h-0.6v3.4zm2.8-4c0-0.3 0.3-0.5 0.6-0.5h1.7c0.3 0 0.5 0.2 0.5 0.5 0 0.3-0.2 0.6-0.5 0.6h-1.2v1.1h1.2c0.3 0 0.5 0.3 0.5 0.6 0 0.3-0.2 0.5-0.5 0.5h-1.2v1.7c0 0.3-0.2 0.6-0.5 0.6-0.3 0-0.6-0.3-0.6-0.6v-2.2z"/></svg>
